<svg width="20" height="20" viewBox="0 0 20 20" fill="none" xmlns="http://www.w3.org/2000/svg">
<path d="M18.3333 9.99996C18.3333 14.6023 14.6023 18.3333 9.99996 18.3333C5.39759 18.3333 1.66663 14.6023 1.66663 9.99996C1.66663 5.39759 5.39759 1.66663 9.99996 1.66663C14.6023 1.66663 18.3333 5.39759 18.3333 9.99996Z" stroke="#999A9B" stroke-width="1.5" stroke-linecap="round" stroke-linejoin="round"/>
<path d="M12.0576 6.29639L13.7037 7.81154L12.0576 9.32669" fill="#00A2B9"/>
<path d="M7.94236 13.7038L6.29626 12.1886L7.94236 10.6735" fill="#00A2B9"/>
<path d="M12.0576 6.29639L13.7037 7.81154M13.7037 7.81154L12.0576 9.32669M13.7037 7.81154H7.94236C7.50578 7.81154 7.0871 7.97117 6.77839 8.25532C6.46969 8.53946 6.29626 8.92485 6.29626 9.32669M7.94236 13.7038L6.29626 12.1886M6.29626 12.1886L7.94236 10.6735M6.29626 12.1886H12.0576C12.4942 12.1886 12.9128 12.029 13.2215 11.7449C13.5302 11.4607 13.7037 11.0753 13.7037 10.6735" stroke="#999A9B" stroke-linecap="round" stroke-linejoin="round"/>
</svg>
