<svg width="20" height="20" viewBox="0 0 20 20" fill="none" xmlns="http://www.w3.org/2000/svg">
<path d="M18.6267 4.00183C17.5156 3.5176 16.4036 3.33337 15.2921 3.33337C11.7639 3.33308 8.23591 5.18873 4.70766 5.18873C3.82281 5.18873 2.93852 5.07206 2.05367 4.7804C1.95427 4.74766 1.85458 4.73218 1.75719 4.73218C1.2642 4.73218 0.833374 5.12861 0.833374 5.67891V15.1212C0.833374 15.4971 1.04048 15.8533 1.37305 15.998C2.48421 16.4825 3.59622 16.6667 4.70766 16.6667C8.23591 16.6667 11.7642 14.8111 15.2924 14.8111C16.1773 14.8111 17.0616 14.9277 17.9464 15.2194C18.0458 15.2521 18.1455 15.2676 18.2429 15.2676C18.7359 15.2676 19.1667 14.8712 19.1667 14.3209V4.87891C19.1664 4.50272 18.9593 4.14677 18.6267 4.00183Z" stroke="#999A9B" stroke-width="1.5" stroke-linecap="round" stroke-linejoin="round"/>
<path d="M10.2444 11.5899C10.2951 11.6685 10.3205 11.745 10.3205 11.8193C10.3205 11.9198 10.2803 12.0028 10.2 12.0684C10.1238 12.1339 10.0329 12.1667 9.92719 12.1667C9.85952 12.1667 9.79397 12.1514 9.73054 12.1208C9.67133 12.0858 9.62058 12.0356 9.57829 11.97L8.73461 10.6461C8.65003 10.5062 8.5591 10.4079 8.46184 10.3511C8.3688 10.2943 8.24616 10.2659 8.09391 10.2659H7.47225V11.7341C7.47225 11.8652 7.4363 11.97 7.36441 12.0487C7.29252 12.123 7.19525 12.1601 7.07261 12.1601C6.94997 12.1601 6.85059 12.123 6.77447 12.0487C6.70257 11.97 6.66663 11.8652 6.66663 11.7341V7.89981C6.66663 7.7731 6.70046 7.67478 6.76812 7.60487C6.84001 7.53496 6.93728 7.5 7.05992 7.5H8.6458C9.15328 7.5 9.53812 7.61798 9.80032 7.85393C10.0667 8.08552 10.2 8.42197 10.2 8.8633C10.2 9.2216 10.1006 9.51654 9.90181 9.74813C9.70728 9.97534 9.43028 10.1217 9.07081 10.1873C9.19345 10.2179 9.30129 10.2725 9.39433 10.3511C9.48737 10.4298 9.57829 10.539 9.6671 10.6788L10.2444 11.5899ZM8.53161 9.61704C8.84033 9.61704 9.06658 9.55805 9.21037 9.44008C9.35416 9.31773 9.42605 9.13202 9.42605 8.88296C9.42605 8.62953 9.35416 8.44601 9.21037 8.3324C9.06658 8.21442 8.84033 8.15543 8.53161 8.15543H7.46591V9.61704H8.53161Z" fill="#999A9B"/>
<path d="M12.7901 8.83708C13.0565 8.83708 13.2933 8.90699 13.5006 9.04682C13.712 9.18664 13.8748 9.38546 13.989 9.64326C14.1074 9.89669 14.1666 10.1895 14.1666 10.5215C14.1666 10.8536 14.1074 11.1442 13.989 11.3933C13.8748 11.6423 13.7141 11.8346 13.5069 11.97C13.2997 12.1055 13.0607 12.1732 12.7901 12.1732C12.5702 12.1732 12.3735 12.1252 12.2001 12.029C12.0268 11.9329 11.8935 11.7996 11.8005 11.6292V12.9663C11.8005 13.0799 11.7646 13.1695 11.6927 13.235C11.6208 13.3006 11.5256 13.3333 11.4072 13.3333C11.2888 13.3333 11.1915 13.2984 11.1154 13.2285C11.0435 13.1586 11.0076 13.0668 11.0076 12.9532V9.23689C11.0076 9.11891 11.0414 9.02497 11.1091 8.95506C11.181 8.88514 11.2761 8.85019 11.3945 8.85019C11.5129 8.85019 11.6081 8.88514 11.68 8.95506C11.7519 9.02497 11.7878 9.11891 11.7878 9.23689V9.40075C11.8809 9.2216 12.0141 9.08396 12.1875 8.98783C12.3651 8.88733 12.5659 8.83708 12.7901 8.83708ZM12.5807 11.5375C12.8303 11.5375 13.0248 11.4501 13.1644 11.2753C13.3039 11.0961 13.3737 10.8449 13.3737 10.5215C13.3737 10.1895 13.3039 9.93165 13.1644 9.74813C13.0248 9.56461 12.8303 9.47285 12.5807 9.47285C12.327 9.47285 12.1304 9.56242 11.9908 9.74157C11.8555 9.92072 11.7878 10.1763 11.7878 10.5084C11.7878 10.8361 11.8555 11.0896 11.9908 11.2687C12.1304 11.4479 12.327 11.5375 12.5807 11.5375Z" fill="#999A9B"/>
</svg>
