<svg width="20" height="20" viewBox="0 0 20 20" fill="none" xmlns="http://www.w3.org/2000/svg">
<path d="M18.3333 9.99996C18.3333 14.6023 14.6023 18.3333 9.99996 18.3333C5.39759 18.3333 1.66663 14.6023 1.66663 9.99996C1.66663 5.39759 5.39759 1.66663 9.99996 1.66663C14.6023 1.66663 18.3333 5.39759 18.3333 9.99996Z" stroke="#999A9B" stroke-width="1.5" stroke-linecap="round" stroke-linejoin="round"/>
<path d="M14.1666 14.1667V13.1481C14.1666 12.6079 13.9471 12.0898 13.5564 11.7077C13.1657 11.3257 12.6358 11.1111 12.0833 11.1111H9.99992H7.91659C7.36405 11.1111 6.83415 11.3257 6.44345 11.7077C6.05275 12.0898 5.83325 12.6079 5.83325 13.1481V14.1667M12.0833 7.03704C12.0833 8.16206 11.1505 9.07407 9.99992 9.07407C8.84933 9.07407 7.91659 8.16206 7.91659 7.03704C7.91659 5.91201 8.84933 5 9.99992 5C11.1505 5 12.0833 5.91201 12.0833 7.03704Z" stroke="#999A9B" stroke-width="1.5" stroke-linecap="round" stroke-linejoin="round"/>
</svg>
